# xmcd
#
# Track frame offsets:
# 150
# 17355
# 47388
# 66125
# 77592
# 91990
# 101954
# 120879
# 164759
# 184801
# 197720
# 214449
# 233181
# 247391
#
# Disc length: 3380 seconds
#
#
# Revision: 0
# Processed by: cddbd v1.4PL0 Copyright (c) Steve Scherf et al.
# Submitted via: FreeRIP 2.20 
#
DISCID=bf0d320e
DTITLE=Jimi Hendrix - Coletânia Original Hits
DYEAR=1900
DGENRE=Alt. Rock
TTITLE0=I Don´t Live Today - Hendrix
TTITLE1=Third Stone From The Sun - Hendrix
TTITLE2=Are You Experienced? - Hendrix
TTITLE3=Can You See Me - Hendrix
TTITLE4=Love Or Confusion - Hendrix
TTITLE5=Have You Ever Been - Hendrix
TTITLE6=Angel - Hendrix
TTITLE7=Voice In The Wind - Brantley and Mitson
TTITLE8=Still Raining, Still Dreaming - Hendrix
TTITLE9=Little Miss Strange - Redding
TTITLE10=Red House - Hendrix
TTITLE11=Come On - Earl King
TTITLE12=May This Be Love - Hendrix
TTITLE13=And The Gods Made Love - Hendrix
EXTD=
EXTT0=
EXTT1=
EXTT2=
EXTT3=
EXTT4=
EXTT5=
EXTT6=
EXTT7=
EXTT8=
EXTT9=
EXTT10=
EXTT11=
EXTT12=
EXTT13=
PLAYORDER=
